<?xml version="1.0" encoding="UTF-8"?><svg id="Logo" xmlns="http://www.w3.org/2000/svg" viewBox="0 0 1269.07 153.86"><defs><style>.cls-1{fill:#14271d;}.cls-1,.cls-2{stroke-width:0px;}.cls-2{fill:#ec8602;}</style></defs><g id="layer3"><g id="g1"><path id="path18" class="cls-2" d="m1210.91,76.97c0,5.31,4.29,9.63,9.6,9.64,5.31,0,9.63-4.29,9.64-9.6,0-5.31-4.29-9.63-9.6-9.64,0,0-.01,0-.02,0-5.31,0-9.61,4.3-9.62,9.6Z"/><path id="path20" class="cls-2" d="m799.22,91.65c-5.2,0-9.41,4.21-9.41,9.41,0,5.2,4.21,9.41,9.41,9.41,5.2,0,9.41-4.21,9.41-9.41h0c0-5.2-4.21-9.41-9.41-9.41Z"/><path id="path19" class="cls-2" d="m528.8,91.65c-5.2,0-9.41,4.21-9.41,9.41s4.21,9.41,9.41,9.41,9.41-4.21,9.41-9.41-4.21-9.41-9.41-9.41h0Z"/><path id="path22" class="cls-2" d="m206.87,67.19c-5.37,0-9.72,4.35-9.72,9.72,0,5.37,4.35,9.72,9.72,9.72s9.72-4.35,9.72-9.72h0c0-5.37-4.35-9.72-9.72-9.72Z"/><circle id="circle21" class="cls-2" cx="42.11" cy="76.01" r="9.83"/><polygon id="polygon18" class="cls-1" points="1184.21 17.4 1269.07 17.35 1269.07 .08 1164.73 .08 1164.73 153.77 1269.07 153.77 1269.07 136.45 1184.21 136.45 1184.21 92.1 1184.21 62.36 1184.21 17.4"/><polygon id="polygon25" class="cls-1" points="1070.14 153.77 1089.62 153.77 1089.62 17.4 1142.66 17.4 1142.66 .08 1017.11 .08 1017.11 17.4 1070.14 17.4 1070.14 153.77"/><path id="path25" class="cls-1" d="m987.99,85.66c4.87-4.54,8.71-10.07,11.25-16.23,2.67-6.38,4.03-13.23,4-20.14-.01-6.12-1.19-12.18-3.48-17.86-2.29-5.8-5.58-11.15-9.74-15.79-4.15-4.66-9.15-8.49-14.73-11.27-5.79-2.84-12.16-4.28-18.61-4.21h-65.8v153.7h19.48v-55.29h40.7l35.08,55.2h22.07l-37.24-58.89c6.34-1.62,12.19-4.79,17.01-9.22h0Zm-31.08-4.33h-46.54V17.38h45.22c4.98-.04,9.84,1.48,13.91,4.33,4.28,2.98,7.77,6.96,10.17,11.58,2.61,4.89,3.95,10.37,3.9,15.91.04,5.45-1.1,10.85-3.36,15.81-2.04,4.66-5.24,8.72-9.3,11.79-4.05,2.99-8.97,4.55-14,4.44v.09Z"/><polygon id="polygon20" class="cls-1" points="799.34 28.65 850.71 153.77 870.33 153.77 807.56 .08 791.11 .08 728.12 153.77 747.73 153.77 799.34 28.65"/><path id="path24" class="cls-1" d="m727.68,31.35c-2.28-5.8-5.58-11.15-9.74-15.79-4.14-4.66-9.14-8.48-14.71-11.27-5.79-2.84-12.17-4.28-18.63-4.21h-64.07v153.7h19.48v-55.2h45.9c8.48.18,16.8-2.28,23.81-7.04,6.77-4.67,12.22-11.01,15.81-18.4,3.72-7.45,5.64-15.66,5.62-23.98-.02-6.1-1.19-12.13-3.46-17.79h0Zm-19.58,33.88c-2.03,4.64-5.24,8.67-9.3,11.69-4.05,2.9-8.93,4.42-13.91,4.33h-44.87V17.38h43.48c4.95-.05,9.79,1.39,13.91,4.12,4.29,2.87,7.79,6.78,10.17,11.36,2.64,5.04,3.98,10.66,3.9,16.35.04,5.52-1.11,10.98-3.37,16.02h0Z"/><polygon id="polygon19" class="cls-1" points="528.92 28.65 580.3 153.77 599.92 153.77 537.15 .08 520.69 .08 457.7 153.77 477.32 153.77 528.92 28.65"/><polygon id="polygon23" class="cls-1" points="417.7 120.2 323.76 .08 307.31 .08 307.31 153.77 326.79 153.77 326.79 36.01 419.43 153.77 437.18 153.77 437.18 .28 417.7 .28 417.7 120.2"/><path id="path23" class="cls-1" d="m258.64,24.36c-6.2-7.36-13.83-13.4-22.42-17.74C227.2,2.13,217.25-.13,207.18,0c-9.82-.09-19.54,2.06-28.4,6.3-8.62,4.16-16.35,9.96-22.75,17.08-6.48,7.21-11.62,15.53-15.15,24.56-3.64,9.24-5.47,19.1-5.41,29.03.03,19.48,7.03,38.3,19.74,53.06,6.28,7.28,13.97,13.19,22.61,17.39,18.18,8.45,39.15,8.52,57.39.21,8.63-4.08,16.36-9.86,22.73-16.97,19.89-22.2,25.76-53.63,15.22-81.52-3.37-9.04-8.28-17.43-14.52-24.78Zm-3.3,74.09c-2.27,6.93-5.74,13.4-10.24,19.13-4.43,5.66-10,10.32-16.35,13.67-6.72,3.5-14.2,5.26-21.78,5.13-7.41.1-14.74-1.59-21.36-4.92-6.34-3.22-11.94-7.73-16.44-13.24-4.65-5.69-8.23-12.17-10.57-19.13-2.48-7.11-3.74-14.59-3.74-22.12,0-7.38,1.22-14.7,3.64-21.67,2.34-6.92,5.84-13.39,10.35-19.13,4.41-5.64,9.98-10.26,16.33-13.57,6.75-3.42,14.23-5.14,21.79-5.01,7.29-.09,14.5,1.55,21.03,4.8,6.35,3.21,11.95,7.72,16.45,13.24,4.66,5.7,8.27,12.18,10.68,19.13,2.49,7.14,3.75,14.65,3.72,22.21-.02,7.3-1.2,14.55-3.51,21.48Z"/><path id="path21" class="cls-1" d="m89.29,74.88c6.86-2.99,12.59-8.11,16.33-14.59,3.77-6.39,5.74-13.67,5.72-21.08,0-6.47-1.44-12.85-4.21-18.7-2.73-5.87-6.92-10.93-12.17-14.71C89.53,1.94,83-.06,76.34.08H0v153.51h72.86c7.82.09,15.55-1.61,22.61-4.97,6.57-3.08,12.2-7.85,16.31-13.83,4.1-6.14,6.21-13.39,6.05-20.77.2-8.86-2.49-17.55-7.67-24.75-5.14-7.01-12.49-12.08-20.87-14.38Zm5.51,48.54c-2.18,3.91-5.3,7.22-9.08,9.62-3.84,2.46-8.31,3.74-12.87,3.69H19.46v-52.8h0v-15.65h0V16.93h50.16c4.12-.05,8.16,1.16,11.57,3.48,3.41,2.33,6.16,5.5,8,9.2,2.01,4.06,3.01,8.55,2.92,13.08.04,4.44-1.03,8.83-3.13,12.75-1.98,3.76-4.88,6.96-8.44,9.3-2.91,1.86-6.23,2.99-9.67,3.29h0c-3.79,0-6.96,3.48-6.96,7.93s3.08,7.95,6.96,7.95h3.48c4.34-.07,8.6,1.22,12.17,3.69,3.57,2.5,6.47,5.84,8.44,9.72,2.1,4.08,3.17,8.6,3.13,13.18.06,4.52-1.07,8.98-3.29,12.92Z"/></g></g></svg>